<svg width="7" height="3" viewBox="0 0 7 3" fill="none" xmlns="http://www.w3.org/2000/svg">
<path d="M0 2.40042C0.197436 1.42332 0.475641 0.77932 0.834615 0.468425C1.19359 0.135323 1.59744 -0.0201247 2.04615 0.00208184C2.51282 0.00208184 2.98846 0.113116 3.47308 0.335184C3.97564 0.557252 4.45128 0.74601 4.9 0.901457C5.34872 1.0347 5.76154 1.06801 6.13846 1.00139C6.51538 0.912561 6.80256 0.579459 7 0.00208184C6.87436 1.13463 6.63205 1.91187 6.27308 2.3338C5.93205 2.75573 5.53718 2.97779 5.08846 3C4.63974 3 4.15513 2.87786 3.63462 2.63359C3.1141 2.36711 2.61154 2.13393 2.12692 1.93407C1.66026 1.73421 1.23846 1.63428 0.861538 1.63428C0.484615 1.63428 0.197436 1.88966 0 2.40042Z" fill="white"/>
</svg>
