<svg width="132" height="14" viewBox="0 0 132 14" fill="none" xmlns="http://www.w3.org/2000/svg">
<path d="M21.4953 0.991113C18.0516 2.98086 17.2538 6.85284 19.0773 10.013C20.9007 13.1703 24.6556 14.4177 28.0992 12.4279C31.5429 10.4413 32.3406 6.56621 30.5172 3.40911C28.6936 0.248775 24.9389 -0.998638 21.4953 0.991113ZM27.8897 12.0676C25.6226 13.3767 22.4838 11.9844 20.7744 9.02432C19.0648 6.06114 19.4284 2.64826 21.6954 1.33914C23.9625 0.0300223 27.1012 1.42229 28.8107 4.38239C30.5201 7.34573 30.1568 10.7586 27.8897 12.0676Z" fill="white"/>
<path d="M87.1709 12.6607H82.6688V2.24732C82.6688 1.6034 83.0384 0.709882 83.4819 0.300146V0.232422H80.3154V0.300146C80.7591 0.709882 81.1286 1.6034 81.1286 2.24732V11.1696C81.1286 11.8135 80.759 12.707 80.3154 13.1167V13.1845H81.1286H82.6686V13.1843H89.6883V12.6618H89.6885V11.637H89.6011C88.9888 12.2761 88.1874 12.6553 87.1709 12.6607Z" fill="white"/>
<path d="M112.78 0.235199V0.232422H108.038V0.235044H108.034H107.221V0.304465C107.666 0.714201 108.034 1.60572 108.034 2.2521V11.1614C108.034 11.8079 107.666 12.6994 107.221 13.109V13.1785H108.034V13.1382H108.038V13.1797H112.779V13.1845C116.678 13.1848 119.254 10.2861 119.254 6.7103C119.254 3.13436 116.679 0.235353 112.78 0.235199ZM112.779 12.7744V12.779H109.575V0.63321H112.78V0.630588C115.347 0.630742 117.329 3.34941 117.329 6.70289C117.328 10.0562 115.346 12.7746 112.779 12.7744Z" fill="white"/>
<path d="M7.43881 11.9967L2.06071 0.233398H0V0.32272C0.545184 0.846306 0.902623 1.50549 0.994875 2.31864V11.1681C0.994875 11.8149 0.625249 12.7051 0.181728 13.1148V13.1856H2.33176V13.1148C1.91277 12.7297 1.56166 11.9258 1.51862 11.2913V2.75306L6.28673 13.1858H7.53122L7.74071 12.6591L7.96857 12.083L12.1423 1.57029V11.1682C12.1423 11.8151 11.7727 12.7052 11.3291 13.1149V13.1858H14.4957V13.1149C14.0521 12.7052 13.6825 11.8151 13.6825 11.1682V2.77142C13.6825 1.74569 14.0645 0.938712 14.7082 0.322565V0.233398H12.1114L7.43881 11.9967Z" fill="white"/>
<path d="M37.9976 8.85606C36.1895 5.72658 36.8087 1.94407 39.3314 0.132812C39.1651 0.212878 38.9987 0.299114 38.8355 0.394606C35.5335 2.30121 34.4 6.5243 36.3096 9.82934C38.2162 13.1344 42.4393 14.2649 45.7444 12.3583C45.9014 12.2689 46.0524 12.1734 46.1973 12.0718C43.3634 13.3317 39.7966 11.9732 37.9976 8.85606Z" fill="white"/>
<path d="M58.6471 0.302099C59.0937 0.711835 59.4602 1.60196 59.4602 2.24881V11.7144L51.3747 0.234375H48.9629V0.320611C49.6067 0.936604 49.9855 1.74373 49.9855 2.77239V11.2892C49.9423 11.9237 49.5912 12.7278 49.1755 13.1127V13.1835H51.3254V13.1158C50.8788 12.706 50.5091 11.8128 50.5091 11.1691V1.68203L58.61 13.1836H59.9838V2.24881C59.9838 1.60196 60.3534 0.711835 60.797 0.302099V0.234375H58.6469V0.302099H58.6471Z" fill="white"/>
<path d="M102.573 11.0286L98.6091 0.229492H96.3944V0.315728C96.8902 0.790103 97.0011 1.40918 96.8194 2.11449L93.4773 11.2101L93.4127 11.3919C93.0739 12.2851 92.6088 12.9504 91.9805 13.1106V13.1783H94.1274L94.1243 13.1106C93.5514 12.9227 93.7454 12.0233 93.9611 11.4227C93.9611 11.4166 93.9642 11.4073 93.9673 11.4011L94.9847 8.63232H100.052L101.231 11.8385C101.394 12.3436 101.338 12.7409 100.913 13.1106L100.91 13.1814H101.723V13.1783H104.129V13.1814H104.172L104.175 13.1106C103.685 12.9907 102.807 11.6169 102.573 11.0286ZM95.1837 8.09131L97.5187 1.7296L99.7951 7.93303L99.8532 8.09131H95.1837Z" fill="white"/>
<path d="M129.469 0.75683C130.492 0.758681 131.298 1.13895 131.913 1.78086H132V0.756522H132V0.233398H124.981H123.441H122.627V0.302819C123.072 0.712401 123.441 1.60407 123.441 2.25045V11.1685C123.441 11.8149 123.072 12.7064 122.627 13.1162V13.1856H123.441H123.448H132V12.6625H132V11.638H131.913C131.298 12.28 130.492 12.6605 129.468 12.6622H124.981V6.97091H127.553C128.516 7.00268 129.283 7.37401 129.872 7.98907H129.96V6.97091V6.44747V5.42946H129.872C129.284 6.04345 128.519 6.41446 127.558 6.44747H124.981V0.75683H129.469Z" fill="white"/>
<path d="M70.1216 7.49267H74.9217V9.79928C74.9203 9.84896 74.9171 9.96651 74.9166 10.0136C74.911 10.5759 74.8944 11.4362 73.9254 12.0298C73.9199 12.0331 73.9151 12.0373 73.9095 12.0405C71.6426 13.3496 68.4178 11.8615 66.7446 9.04692C65.0697 6.22936 65.4493 2.62057 67.7164 1.31145C69.6016 0.224168 72.3087 1.03361 74.0094 3.00362H76.3109C74.2509 -0.076655 70.4206 -0.844293 67.5165 0.963112C67.5159 0.963421 67.5154 0.963729 67.5148 0.964038C64.0711 2.95086 63.2734 6.82577 65.0968 9.98595C66.9203 13.1432 70.7258 14.3906 74.1695 12.4009C74.1736 12.3985 74.1772 12.3958 74.1812 12.3933C75.6131 11.553 76.3524 10.4856 76.6125 9.94183C76.6274 9.91036 76.6298 9.86037 76.6293 9.82273H76.6296V7.49267H76.6321V6.96892H70.1215V7.49267H70.1216Z" fill="white"/>
</svg>
